<mxfile host="app.diagrams.net" modified="2023-01-31T16:54:49.276Z" agent="5.0 (Macintosh; Intel Mac OS X 10_15_7) AppleWebKit/605.1.15 (KHTML, like Gecko) Version/15.6.1 Safari/605.1.15" etag="zZaFxLgKJwxoEdVncX0F" version="20.8.13" type="github">
  <diagram id="53IQXVl9icCSp_Kw3Ib1" name="Page-1">
    <mxGraphModel dx="1466" dy="907" grid="1" gridSize="10" guides="1" tooltips="1" connect="1" arrows="1" fold="1" page="1" pageScale="1" pageWidth="1654" pageHeight="1169" math="0" shadow="0">
      <root>
        <mxCell id="0" />
        <mxCell id="1" parent="0" />
        <mxCell id="uWUnNED6HEl2aK5fdaIb-9" style="edgeStyle=orthogonalEdgeStyle;curved=1;rounded=0;html=1;exitX=1;exitY=0.5;exitPerimeter=0;entryX=0;entryY=0.5;entryPerimeter=0;endArrow=none;endFill=0;jettySize=auto;orthogonalLoop=1;strokeWidth=4;fontSize=15;" parent="1" source="uWUnNED6HEl2aK5fdaIb-10" target="uWUnNED6HEl2aK5fdaIb-15" edge="1">
          <mxGeometry relative="1" as="geometry" />
        </mxCell>
        <mxCell id="uWUnNED6HEl2aK5fdaIb-10" value="" style="verticalLabelPosition=bottom;verticalAlign=top;html=1;strokeWidth=4;shape=mxgraph.flowchart.on-page_reference;plain-blue;gradientColor=none;fillColor=#B5E3FE;strokeColor=#000000;" parent="1" vertex="1">
          <mxGeometry x="262.25" y="196" width="30" height="30" as="geometry" />
        </mxCell>
        <mxCell id="uWUnNED6HEl2aK5fdaIb-109" value="" style="verticalLabelPosition=bottom;verticalAlign=top;html=1;strokeWidth=4;shape=mxgraph.flowchart.on-page_reference;plain-blue;gradientColor=none;strokeColor=#33001A;fillColor=#B5E3FE;" parent="1" vertex="1">
          <mxGeometry x="1365" y="196" width="30" height="30" as="geometry" />
        </mxCell>
        <mxCell id="uWUnNED6HEl2aK5fdaIb-12" value="" style="edgeStyle=orthogonalEdgeStyle;rounded=0;html=1;jettySize=auto;orthogonalLoop=1;strokeWidth=4;endArrow=none;endFill=0;" parent="1" target="uWUnNED6HEl2aK5fdaIb-10" edge="1">
          <mxGeometry x="192.25" y="211" as="geometry">
            <mxPoint x="150" y="211" as="sourcePoint" />
          </mxGeometry>
        </mxCell>
        <mxCell id="uWUnNED6HEl2aK5fdaIb-13" value="main" style="text;html=1;strokeColor=none;fillColor=none;align=center;verticalAlign=middle;whiteSpace=wrap;overflow=hidden;fontSize=14;fontStyle=1;fontFamily=Courier New;" parent="1" vertex="1">
          <mxGeometry x="83" y="190" width="50" height="42" as="geometry" />
        </mxCell>
        <mxCell id="uWUnNED6HEl2aK5fdaIb-14" style="edgeStyle=orthogonalEdgeStyle;curved=1;rounded=0;html=1;exitX=1;exitY=0.5;exitPerimeter=0;endArrow=none;endFill=0;jettySize=auto;orthogonalLoop=1;strokeWidth=4;fontSize=15;entryX=0;entryY=0.5;entryDx=0;entryDy=0;entryPerimeter=0;" parent="1" source="uWUnNED6HEl2aK5fdaIb-15" target="PTX6QpeWHrQT1PxCH0X8-5" edge="1">
          <mxGeometry relative="1" as="geometry">
            <mxPoint x="447" y="296" as="targetPoint" />
          </mxGeometry>
        </mxCell>
        <mxCell id="uWUnNED6HEl2aK5fdaIb-15" value="" style="verticalLabelPosition=bottom;verticalAlign=top;html=1;strokeWidth=4;shape=mxgraph.flowchart.on-page_reference;strokeColor=#36393d;fillColor=#ffff88;" parent="1" vertex="1">
          <mxGeometry x="339.75" y="281" width="30" height="30" as="geometry" />
        </mxCell>
        <mxCell id="uWUnNED6HEl2aK5fdaIb-75" style="edgeStyle=orthogonalEdgeStyle;rounded=0;orthogonalLoop=1;jettySize=auto;html=1;entryX=1;entryY=0.5;entryDx=0;entryDy=0;entryPerimeter=0;endArrow=none;endFill=0;strokeWidth=4;curved=1;" parent="1" source="uWUnNED6HEl2aK5fdaIb-69" target="uWUnNED6HEl2aK5fdaIb-15" edge="1">
          <mxGeometry relative="1" as="geometry">
            <Array as="points">
              <mxPoint x="390" y="376" />
              <mxPoint x="390" y="296" />
            </Array>
          </mxGeometry>
        </mxCell>
        <mxCell id="uWUnNED6HEl2aK5fdaIb-69" value="" style="verticalLabelPosition=bottom;verticalAlign=top;html=1;strokeWidth=4;shape=mxgraph.flowchart.on-page_reference;plain-purple;gradientColor=none;strokeColor=#000000;fillColor=#D5E8D4;" parent="1" vertex="1">
          <mxGeometry x="416.75" y="361" width="30" height="30" as="geometry" />
        </mxCell>
        <mxCell id="uWUnNED6HEl2aK5fdaIb-76" value="develop" style="text;html=1;strokeColor=none;fillColor=none;align=left;verticalAlign=middle;whiteSpace=wrap;overflow=hidden;fontSize=14;fontStyle=1;fontFamily=Courier New;" parent="1" vertex="1">
          <mxGeometry x="82.25" y="286" width="91" height="20" as="geometry" />
        </mxCell>
        <mxCell id="uWUnNED6HEl2aK5fdaIb-86" value="feature/Nicholas" style="text;html=1;strokeColor=none;fillColor=none;align=left;verticalAlign=middle;whiteSpace=wrap;overflow=hidden;fontSize=14;fontStyle=1;fontFamily=Courier New;" parent="1" vertex="1">
          <mxGeometry x="82.25" y="365" width="147.75" height="20" as="geometry" />
        </mxCell>
        <mxCell id="uWUnNED6HEl2aK5fdaIb-87" value="Development branch&amp;nbsp;" style="text;html=1;strokeColor=none;fillColor=none;align=left;verticalAlign=middle;whiteSpace=wrap;overflow=hidden;fontSize=14;fontStyle=0;fontColor=#009900;" parent="1" vertex="1">
          <mxGeometry x="82.25" y="310" width="240" height="20" as="geometry" />
        </mxCell>
        <mxCell id="uWUnNED6HEl2aK5fdaIb-88" value="Pico Logger, Javascript Python, Dye Injection, Testbed Arduino" style="text;html=1;strokeColor=none;fillColor=none;align=left;verticalAlign=middle;whiteSpace=wrap;overflow=hidden;fontSize=14;fontStyle=0;fontColor=#009900;" parent="1" vertex="1">
          <mxGeometry x="82.25" y="390" width="397.75" height="30" as="geometry" />
        </mxCell>
        <mxCell id="uWUnNED6HEl2aK5fdaIb-90" value="The main branch&lt;br&gt;" style="text;html=1;strokeColor=none;fillColor=none;align=left;verticalAlign=middle;whiteSpace=wrap;overflow=hidden;fontSize=14;fontStyle=0;fontColor=#009900;" parent="1" vertex="1">
          <mxGeometry x="82.25" y="220" width="146.75" height="20" as="geometry" />
        </mxCell>
        <mxCell id="uWUnNED6HEl2aK5fdaIb-92" value="" style="endArrow=classic;html=1;strokeWidth=1;fontFamily=Courier New;fontColor=#009900;" parent="1" edge="1">
          <mxGeometry width="50" height="50" relative="1" as="geometry">
            <mxPoint x="160" y="295.58" as="sourcePoint" />
            <mxPoint x="320" y="296" as="targetPoint" />
          </mxGeometry>
        </mxCell>
        <mxCell id="uWUnNED6HEl2aK5fdaIb-103" value="Tag: 0.1.0" style="text;html=1;strokeColor=none;fillColor=none;align=center;verticalAlign=middle;whiteSpace=wrap;overflow=hidden;fontSize=14;" parent="1" vertex="1">
          <mxGeometry x="242.25" y="170" width="70" height="20" as="geometry" />
        </mxCell>
        <mxCell id="uWUnNED6HEl2aK5fdaIb-106" value="" style="verticalLabelPosition=bottom;verticalAlign=top;html=1;strokeWidth=4;shape=mxgraph.flowchart.on-page_reference;strokeColor=#36393d;fillColor=#ffff88;" parent="1" vertex="1">
          <mxGeometry x="1125.37" y="281" width="30" height="30" as="geometry" />
        </mxCell>
        <mxCell id="fSnZ5vnYTslC5NarKmr_-9" value="" style="edgeStyle=orthogonalEdgeStyle;rounded=0;orthogonalLoop=1;jettySize=auto;html=1;fontSize=12;fontColor=#000000;" parent="1" source="fSnZ5vnYTslC5NarKmr_-8" edge="1">
          <mxGeometry relative="1" as="geometry">
            <mxPoint x="240" y="180" as="targetPoint" />
            <Array as="points">
              <mxPoint x="240" y="180" />
              <mxPoint x="240" y="180" />
            </Array>
          </mxGeometry>
        </mxCell>
        <mxCell id="fSnZ5vnYTslC5NarKmr_-8" value="&lt;span style=&quot;text-align: center; font-size: 11px;&quot;&gt;Each tag represents a pre-production release.&lt;/span&gt;" style="text;html=1;strokeColor=none;fillColor=none;align=left;verticalAlign=middle;whiteSpace=wrap;overflow=hidden;fontSize=11;fontStyle=0;fontColor=#000000;" parent="1" vertex="1">
          <mxGeometry x="86.5" y="158" width="120" height="38" as="geometry" />
        </mxCell>
        <mxCell id="fSnZ5vnYTslC5NarKmr_-11" value="Git Branching Strategy Software" style="text;html=1;strokeColor=none;fillColor=none;align=center;verticalAlign=middle;whiteSpace=wrap;rounded=0;fontSize=33;fontColor=#000000;" parent="1" vertex="1">
          <mxGeometry x="446.75" y="70" width="538" height="40" as="geometry" />
        </mxCell>
        <mxCell id="PTX6QpeWHrQT1PxCH0X8-2" style="edgeStyle=orthogonalEdgeStyle;curved=1;rounded=0;html=1;exitX=1;exitY=0.5;exitPerimeter=0;endArrow=none;endFill=0;jettySize=auto;orthogonalLoop=1;strokeWidth=4;fontSize=15;entryX=0;entryY=0.5;entryDx=0;entryDy=0;entryPerimeter=0;startArrow=none;" parent="1" source="PTX6QpeWHrQT1PxCH0X8-66" target="uWUnNED6HEl2aK5fdaIb-109" edge="1">
          <mxGeometry relative="1" as="geometry">
            <mxPoint x="292.21" y="210" as="sourcePoint" />
            <mxPoint x="620" y="210" as="targetPoint" />
            <Array as="points">
              <mxPoint x="600" y="210" />
            </Array>
          </mxGeometry>
        </mxCell>
        <mxCell id="PTX6QpeWHrQT1PxCH0X8-5" value="" style="verticalLabelPosition=bottom;verticalAlign=top;html=1;strokeWidth=4;shape=mxgraph.flowchart.on-page_reference;strokeColor=#36393d;fillColor=#ffff88;" parent="1" vertex="1">
          <mxGeometry x="490" y="280" width="30" height="30" as="geometry" />
        </mxCell>
        <mxCell id="PTX6QpeWHrQT1PxCH0X8-10" style="edgeStyle=orthogonalEdgeStyle;curved=1;rounded=0;orthogonalLoop=1;jettySize=auto;html=1;endArrow=none;endFill=0;strokeWidth=4;fontFamily=Courier New;fontColor=#009900;" parent="1" edge="1">
          <mxGeometry relative="1" as="geometry">
            <mxPoint x="446.75" y="374.9700000000001" as="sourcePoint" />
            <mxPoint x="490" y="295" as="targetPoint" />
            <Array as="points">
              <mxPoint x="476.75" y="375.00000000000006" />
              <mxPoint x="476.75" y="295.00000000000006" />
            </Array>
          </mxGeometry>
        </mxCell>
        <mxCell id="PTX6QpeWHrQT1PxCH0X8-11" style="edgeStyle=orthogonalEdgeStyle;rounded=0;orthogonalLoop=1;jettySize=auto;html=1;entryX=1;entryY=0.5;entryDx=0;entryDy=0;entryPerimeter=0;endArrow=none;endFill=0;strokeWidth=4;curved=1;" parent="1" edge="1">
          <mxGeometry relative="1" as="geometry">
            <mxPoint x="567" y="375" as="sourcePoint" />
            <mxPoint x="520" y="295" as="targetPoint" />
            <Array as="points">
              <mxPoint x="540.25" y="375" />
              <mxPoint x="540.25" y="295" />
            </Array>
          </mxGeometry>
        </mxCell>
        <mxCell id="PTX6QpeWHrQT1PxCH0X8-12" value="" style="verticalLabelPosition=bottom;verticalAlign=top;html=1;strokeWidth=4;shape=mxgraph.flowchart.on-page_reference;plain-purple;gradientColor=none;strokeColor=#000000;fillColor=#D5E8D4;" parent="1" vertex="1">
          <mxGeometry x="570" y="360" width="30" height="30" as="geometry" />
        </mxCell>
        <mxCell id="PTX6QpeWHrQT1PxCH0X8-13" value="" style="verticalLabelPosition=bottom;verticalAlign=top;html=1;strokeWidth=4;shape=mxgraph.flowchart.on-page_reference;plain-purple;gradientColor=none;strokeColor=#000000;fillColor=#D5E8D4;" parent="1" vertex="1">
          <mxGeometry x="670.25" y="425" width="30" height="30" as="geometry" />
        </mxCell>
        <mxCell id="PTX6QpeWHrQT1PxCH0X8-14" style="edgeStyle=orthogonalEdgeStyle;rounded=0;orthogonalLoop=1;jettySize=auto;html=1;entryX=1;entryY=0.5;entryDx=0;entryDy=0;entryPerimeter=0;endArrow=none;endFill=0;strokeWidth=4;curved=1;exitX=0;exitY=0.5;exitDx=0;exitDy=0;exitPerimeter=0;" parent="1" source="PTX6QpeWHrQT1PxCH0X8-13" target="PTX6QpeWHrQT1PxCH0X8-5" edge="1">
          <mxGeometry relative="1" as="geometry">
            <mxPoint x="630" y="440" as="sourcePoint" />
            <mxPoint x="510" y="311" as="targetPoint" />
            <Array as="points">
              <mxPoint x="530" y="440" />
              <mxPoint x="530" y="295" />
            </Array>
          </mxGeometry>
        </mxCell>
        <mxCell id="PTX6QpeWHrQT1PxCH0X8-15" style="edgeStyle=orthogonalEdgeStyle;rounded=0;orthogonalLoop=1;jettySize=auto;html=1;entryX=1;entryY=0.5;entryDx=0;entryDy=0;entryPerimeter=0;endArrow=none;endFill=0;strokeWidth=4;curved=1;exitX=0;exitY=0.5;exitDx=0;exitDy=0;exitPerimeter=0;" parent="1" source="PTX6QpeWHrQT1PxCH0X8-16" edge="1">
          <mxGeometry relative="1" as="geometry">
            <mxPoint x="540" y="530" as="sourcePoint" />
            <mxPoint x="520" y="300" as="targetPoint" />
            <Array as="points">
              <mxPoint x="530" y="520" />
              <mxPoint x="530" y="300" />
            </Array>
          </mxGeometry>
        </mxCell>
        <mxCell id="PTX6QpeWHrQT1PxCH0X8-16" value="" style="verticalLabelPosition=bottom;verticalAlign=top;html=1;strokeWidth=4;shape=mxgraph.flowchart.on-page_reference;plain-purple;gradientColor=none;strokeColor=#000000;fillColor=#D5E8D4;" parent="1" vertex="1">
          <mxGeometry x="732.56" y="505" width="30" height="30" as="geometry" />
        </mxCell>
        <mxCell id="PTX6QpeWHrQT1PxCH0X8-18" style="edgeStyle=orthogonalEdgeStyle;curved=1;rounded=0;orthogonalLoop=1;jettySize=auto;html=1;endArrow=none;endFill=0;strokeWidth=4;fontFamily=Courier New;fontColor=#009900;entryX=0;entryY=0.5;entryDx=0;entryDy=0;entryPerimeter=0;" parent="1" target="PTX6QpeWHrQT1PxCH0X8-20" edge="1">
          <mxGeometry relative="1" as="geometry">
            <mxPoint x="600" y="369.9699999999999" as="sourcePoint" />
            <mxPoint x="643.25" y="290" as="targetPoint" />
            <Array as="points">
              <mxPoint x="630" y="370" />
              <mxPoint x="630" y="300" />
              <mxPoint x="660" y="300" />
            </Array>
          </mxGeometry>
        </mxCell>
        <mxCell id="PTX6QpeWHrQT1PxCH0X8-20" value="" style="verticalLabelPosition=bottom;verticalAlign=top;html=1;strokeWidth=4;shape=mxgraph.flowchart.on-page_reference;strokeColor=#36393d;fillColor=#ffff88;" parent="1" vertex="1">
          <mxGeometry x="640" y="280" width="30" height="30" as="geometry" />
        </mxCell>
        <mxCell id="PTX6QpeWHrQT1PxCH0X8-21" style="edgeStyle=orthogonalEdgeStyle;curved=1;rounded=0;html=1;exitX=1;exitY=0.5;exitPerimeter=0;endArrow=none;endFill=0;jettySize=auto;orthogonalLoop=1;strokeWidth=4;fontSize=15;" parent="1" edge="1">
          <mxGeometry relative="1" as="geometry">
            <mxPoint x="519.7" y="295.5" as="sourcePoint" />
            <mxPoint x="640" y="296" as="targetPoint" />
            <Array as="points">
              <mxPoint x="639" y="296" />
            </Array>
          </mxGeometry>
        </mxCell>
        <mxCell id="PTX6QpeWHrQT1PxCH0X8-22" style="edgeStyle=orthogonalEdgeStyle;rounded=0;orthogonalLoop=1;jettySize=auto;html=1;entryX=1;entryY=0.5;entryDx=0;entryDy=0;entryPerimeter=0;endArrow=none;endFill=0;strokeWidth=4;curved=1;exitX=0.5;exitY=1;exitDx=0;exitDy=0;exitPerimeter=0;" parent="1" source="PTX6QpeWHrQT1PxCH0X8-24" target="PTX6QpeWHrQT1PxCH0X8-13" edge="1">
          <mxGeometry relative="1" as="geometry">
            <mxPoint x="649" y="587.5" as="sourcePoint" />
            <mxPoint x="599" y="442.5" as="targetPoint" />
            <Array as="points">
              <mxPoint x="825" y="440" />
            </Array>
          </mxGeometry>
        </mxCell>
        <mxCell id="PTX6QpeWHrQT1PxCH0X8-25" value="" style="edgeStyle=orthogonalEdgeStyle;curved=1;rounded=0;html=1;exitX=1;exitY=0.5;exitPerimeter=0;endArrow=none;endFill=0;jettySize=auto;orthogonalLoop=1;strokeWidth=4;fontSize=15;startArrow=none;" parent="1" source="PTX6QpeWHrQT1PxCH0X8-26" target="PTX6QpeWHrQT1PxCH0X8-24" edge="1">
          <mxGeometry relative="1" as="geometry">
            <mxPoint x="670" y="295.5899999999999" as="sourcePoint" />
            <mxPoint x="710" y="296" as="targetPoint" />
            <Array as="points" />
          </mxGeometry>
        </mxCell>
        <mxCell id="PTX6QpeWHrQT1PxCH0X8-24" value="" style="verticalLabelPosition=bottom;verticalAlign=top;html=1;strokeWidth=4;shape=mxgraph.flowchart.on-page_reference;strokeColor=#36393d;fillColor=#ffff88;" parent="1" vertex="1">
          <mxGeometry x="810" y="281" width="30" height="30" as="geometry" />
        </mxCell>
        <mxCell id="PTX6QpeWHrQT1PxCH0X8-27" value="" style="edgeStyle=orthogonalEdgeStyle;curved=1;rounded=0;html=1;exitX=1;exitY=0.5;exitPerimeter=0;endArrow=none;endFill=0;jettySize=auto;orthogonalLoop=1;strokeWidth=4;fontSize=15;" parent="1" target="PTX6QpeWHrQT1PxCH0X8-26" edge="1">
          <mxGeometry relative="1" as="geometry">
            <mxPoint x="670" y="295.5899999999998" as="sourcePoint" />
            <mxPoint x="760" y="296" as="targetPoint" />
            <Array as="points" />
          </mxGeometry>
        </mxCell>
        <mxCell id="PTX6QpeWHrQT1PxCH0X8-26" value="" style="verticalLabelPosition=bottom;verticalAlign=top;html=1;strokeWidth=4;shape=mxgraph.flowchart.on-page_reference;strokeColor=#36393d;fillColor=#ffff88;" parent="1" vertex="1">
          <mxGeometry x="721.29" y="281" width="30" height="30" as="geometry" />
        </mxCell>
        <mxCell id="PTX6QpeWHrQT1PxCH0X8-28" style="edgeStyle=orthogonalEdgeStyle;rounded=0;orthogonalLoop=1;jettySize=auto;html=1;entryX=0.5;entryY=1;entryDx=0;entryDy=0;entryPerimeter=0;endArrow=none;endFill=0;strokeWidth=4;curved=1;exitX=0;exitY=0.5;exitDx=0;exitDy=0;exitPerimeter=0;" parent="1" source="PTX6QpeWHrQT1PxCH0X8-29" target="PTX6QpeWHrQT1PxCH0X8-26" edge="1">
          <mxGeometry relative="1" as="geometry">
            <mxPoint x="760" y="391" as="sourcePoint" />
            <mxPoint x="713" y="311" as="targetPoint" />
            <Array as="points">
              <mxPoint x="736" y="376" />
            </Array>
          </mxGeometry>
        </mxCell>
        <mxCell id="PTX6QpeWHrQT1PxCH0X8-29" value="" style="verticalLabelPosition=bottom;verticalAlign=top;html=1;strokeWidth=4;shape=mxgraph.flowchart.on-page_reference;plain-purple;gradientColor=none;strokeColor=#000000;fillColor=#D5E8D4;" parent="1" vertex="1">
          <mxGeometry x="962.31" y="360" width="30" height="30" as="geometry" />
        </mxCell>
        <mxCell id="PTX6QpeWHrQT1PxCH0X8-30" value="" style="endArrow=classic;html=1;strokeWidth=1;fontFamily=Courier New;fontColor=#009900;" parent="1" source="uWUnNED6HEl2aK5fdaIb-86" edge="1">
          <mxGeometry width="50" height="50" relative="1" as="geometry">
            <mxPoint x="300" y="375.5199999999999" as="sourcePoint" />
            <mxPoint x="390" y="376" as="targetPoint" />
          </mxGeometry>
        </mxCell>
        <mxCell id="PTX6QpeWHrQT1PxCH0X8-31" value="feature/Jimmy" style="text;html=1;strokeColor=none;fillColor=none;align=left;verticalAlign=middle;whiteSpace=wrap;overflow=hidden;fontSize=14;fontStyle=1;fontFamily=Courier New;" parent="1" vertex="1">
          <mxGeometry x="83" y="425" width="127" height="20" as="geometry" />
        </mxCell>
        <mxCell id="PTX6QpeWHrQT1PxCH0X8-32" value="Raspberry Pi" style="text;html=1;strokeColor=none;fillColor=none;align=left;verticalAlign=middle;whiteSpace=wrap;overflow=hidden;fontSize=14;fontStyle=0;fontColor=#009900;" parent="1" vertex="1">
          <mxGeometry x="83" y="450" width="240" height="20" as="geometry" />
        </mxCell>
        <mxCell id="PTX6QpeWHrQT1PxCH0X8-33" value="" style="endArrow=classic;html=1;strokeWidth=1;fontFamily=Courier New;fontColor=#009900;exitX=1;exitY=0.75;exitDx=0;exitDy=0;" parent="1" source="PTX6QpeWHrQT1PxCH0X8-31" edge="1">
          <mxGeometry width="50" height="50" relative="1" as="geometry">
            <mxPoint x="309.75" y="439.52" as="sourcePoint" />
            <mxPoint x="560" y="440" as="targetPoint" />
          </mxGeometry>
        </mxCell>
        <mxCell id="PTX6QpeWHrQT1PxCH0X8-34" value="feature/Pike" style="text;html=1;strokeColor=none;fillColor=none;align=left;verticalAlign=middle;whiteSpace=wrap;overflow=hidden;fontSize=14;fontStyle=1;fontFamily=Courier New;" parent="1" vertex="1">
          <mxGeometry x="82.25" y="510" width="127.75" height="20" as="geometry" />
        </mxCell>
        <mxCell id="PTX6QpeWHrQT1PxCH0X8-36" value="" style="endArrow=classic;html=1;strokeWidth=1;fontFamily=Courier New;fontColor=#009900;" parent="1" edge="1">
          <mxGeometry width="50" height="50" relative="1" as="geometry">
            <mxPoint x="200" y="520" as="sourcePoint" />
            <mxPoint x="610" y="520" as="targetPoint" />
            <Array as="points">
              <mxPoint x="360" y="520" />
            </Array>
          </mxGeometry>
        </mxCell>
        <mxCell id="PTX6QpeWHrQT1PxCH0X8-37" value="&lt;span style=&quot;&quot;&gt;JavaScript UI, Python backend&amp;nbsp;&lt;br&gt;&lt;/span&gt;" style="text;html=1;strokeColor=none;fillColor=none;align=center;verticalAlign=middle;whiteSpace=wrap;overflow=hidden;fontSize=12;fontStyle=0;fontColor=#000000;" parent="1" vertex="1">
          <mxGeometry x="545.13" y="306" width="79.75" height="46" as="geometry" />
        </mxCell>
        <mxCell id="PTX6QpeWHrQT1PxCH0X8-38" value="&lt;span style=&quot;&quot;&gt;Pico Datalogger&lt;br&gt;&lt;/span&gt;" style="text;html=1;strokeColor=none;fillColor=none;align=center;verticalAlign=middle;whiteSpace=wrap;overflow=hidden;fontSize=12;fontStyle=0;fontColor=#000000;" parent="1" vertex="1">
          <mxGeometry x="391.87" y="311" width="79.75" height="46" as="geometry" />
        </mxCell>
        <mxCell id="PTX6QpeWHrQT1PxCH0X8-39" value="&lt;span style=&quot;&quot;&gt;Testbed Arduino GP/IO Raspberry Pi&amp;nbsp;Interrupts&lt;br&gt;&lt;/span&gt;" style="text;html=1;strokeColor=none;fillColor=none;align=center;verticalAlign=middle;whiteSpace=wrap;overflow=hidden;fontSize=12;fontStyle=0;fontColor=#000000;" parent="1" vertex="1">
          <mxGeometry x="619.2199999999999" y="377" width="132.07" height="46" as="geometry" />
        </mxCell>
        <mxCell id="PTX6QpeWHrQT1PxCH0X8-41" value="&lt;span style=&quot;&quot;&gt;Low level programming STM32 Microcontrollers&lt;br&gt;&lt;/span&gt;" style="text;html=1;strokeColor=none;fillColor=none;align=center;verticalAlign=middle;whiteSpace=wrap;overflow=hidden;fontSize=12;fontStyle=0;fontColor=#000000;" parent="1" vertex="1">
          <mxGeometry x="677.56" y="455" width="140" height="46" as="geometry" />
        </mxCell>
        <mxCell id="PTX6QpeWHrQT1PxCH0X8-42" value="&lt;span style=&quot;&quot;&gt;Dye Injection + Testbed Arduino Microcontroller Protocol&lt;br&gt;&lt;/span&gt;" style="text;html=1;strokeColor=none;fillColor=none;align=center;verticalAlign=middle;whiteSpace=wrap;overflow=hidden;fontSize=12;fontStyle=0;fontColor=#000000;" parent="1" vertex="1">
          <mxGeometry x="930" y="297" width="94.63" height="63" as="geometry" />
        </mxCell>
        <mxCell id="PTX6QpeWHrQT1PxCH0X8-44" style="edgeStyle=orthogonalEdgeStyle;curved=1;rounded=0;html=1;exitX=1;exitY=0.5;exitPerimeter=0;endArrow=none;endFill=0;jettySize=auto;orthogonalLoop=1;strokeWidth=4;fontSize=15;entryX=0;entryY=0.5;entryDx=0;entryDy=0;entryPerimeter=0;startArrow=none;" parent="1" source="PTX6QpeWHrQT1PxCH0X8-60" target="uWUnNED6HEl2aK5fdaIb-106" edge="1">
          <mxGeometry relative="1" as="geometry">
            <mxPoint x="842.25" y="296" as="sourcePoint" />
            <mxPoint x="910.3" y="296.22" as="targetPoint" />
            <Array as="points" />
          </mxGeometry>
        </mxCell>
        <mxCell id="PTX6QpeWHrQT1PxCH0X8-47" value="" style="edgeStyle=orthogonalEdgeStyle;curved=1;rounded=0;html=1;exitX=1;exitY=0.5;exitPerimeter=0;endArrow=none;endFill=0;jettySize=auto;orthogonalLoop=1;strokeWidth=4;fontSize=15;entryX=0;entryY=0.5;entryDx=0;entryDy=0;entryPerimeter=0;" parent="1" edge="1">
          <mxGeometry relative="1" as="geometry">
            <mxPoint x="790" y="295.72" as="sourcePoint" />
            <mxPoint x="812.25" y="296" as="targetPoint" />
            <Array as="points" />
          </mxGeometry>
        </mxCell>
        <mxCell id="PTX6QpeWHrQT1PxCH0X8-53" value="" style="edgeStyle=orthogonalEdgeStyle;curved=1;rounded=0;orthogonalLoop=1;jettySize=auto;html=1;endArrow=none;endFill=0;strokeWidth=4;fontFamily=Courier New;fontColor=#009900;entryX=0.5;entryY=1;entryDx=0;entryDy=0;entryPerimeter=0;exitX=0.5;exitY=0;exitDx=0;exitDy=0;exitPerimeter=0;" parent="1" source="PTX6QpeWHrQT1PxCH0X8-20" target="PTX6QpeWHrQT1PxCH0X8-52" edge="1">
          <mxGeometry relative="1" as="geometry">
            <mxPoint x="649.9999999999998" y="279.9699999999998" as="sourcePoint" />
            <mxPoint x="739.9999999999998" y="230" as="targetPoint" />
            <Array as="points">
              <mxPoint x="655" y="260" />
              <mxPoint x="695" y="260" />
            </Array>
          </mxGeometry>
        </mxCell>
        <mxCell id="PTX6QpeWHrQT1PxCH0X8-58" value="Tag: 0.2.0&lt;br&gt;Javascript/Python API Test" style="text;html=1;strokeColor=none;fillColor=none;align=center;verticalAlign=middle;whiteSpace=wrap;overflow=hidden;fontSize=14;" parent="1" vertex="1">
          <mxGeometry x="570" y="133.5" width="250" height="70" as="geometry" />
        </mxCell>
        <mxCell id="PTX6QpeWHrQT1PxCH0X8-63" value="" style="edgeStyle=orthogonalEdgeStyle;curved=1;rounded=0;html=1;exitX=1;exitY=0.5;exitPerimeter=0;endArrow=none;endFill=0;jettySize=auto;orthogonalLoop=1;strokeWidth=4;fontSize=15;entryX=0;entryY=0.5;entryDx=0;entryDy=0;entryPerimeter=0;startArrow=none;" parent="1" target="PTX6QpeWHrQT1PxCH0X8-60" edge="1">
          <mxGeometry relative="1" as="geometry">
            <mxPoint x="842.25" y="296" as="sourcePoint" />
            <mxPoint x="1100" y="296" as="targetPoint" />
            <Array as="points" />
          </mxGeometry>
        </mxCell>
        <mxCell id="PTX6QpeWHrQT1PxCH0X8-60" value="" style="verticalLabelPosition=bottom;verticalAlign=top;html=1;strokeWidth=4;shape=mxgraph.flowchart.on-page_reference;strokeColor=#36393d;fillColor=#ffff88;" parent="1" vertex="1">
          <mxGeometry x="900" y="281" width="30" height="30" as="geometry" />
        </mxCell>
        <mxCell id="PTX6QpeWHrQT1PxCH0X8-64" style="edgeStyle=orthogonalEdgeStyle;rounded=0;orthogonalLoop=1;jettySize=auto;html=1;entryX=1;entryY=0.5;entryDx=0;entryDy=0;entryPerimeter=0;endArrow=none;endFill=0;strokeWidth=4;curved=1;exitX=0.5;exitY=1;exitDx=0;exitDy=0;exitPerimeter=0;" parent="1" source="PTX6QpeWHrQT1PxCH0X8-60" edge="1">
          <mxGeometry relative="1" as="geometry">
            <mxPoint x="889.75" y="391" as="sourcePoint" />
            <mxPoint x="765" y="520" as="targetPoint" />
            <Array as="points">
              <mxPoint x="915" y="520" />
            </Array>
          </mxGeometry>
        </mxCell>
        <mxCell id="PTX6QpeWHrQT1PxCH0X8-65" value="" style="edgeStyle=orthogonalEdgeStyle;curved=1;rounded=0;orthogonalLoop=1;jettySize=auto;html=1;endArrow=none;endFill=0;strokeWidth=4;fontFamily=Courier New;fontColor=#009900;entryX=0.5;entryY=1;entryDx=0;entryDy=0;entryPerimeter=0;exitX=0.5;exitY=0;exitDx=0;exitDy=0;exitPerimeter=0;" parent="1" edge="1">
          <mxGeometry relative="1" as="geometry">
            <mxPoint x="916.13" y="280" as="sourcePoint" />
            <mxPoint x="956.13" y="226" as="targetPoint" />
            <Array as="points">
              <mxPoint x="916.13" y="260" />
              <mxPoint x="956.13" y="260" />
            </Array>
          </mxGeometry>
        </mxCell>
        <mxCell id="PTX6QpeWHrQT1PxCH0X8-67" value="" style="edgeStyle=orthogonalEdgeStyle;curved=1;rounded=0;html=1;exitX=1;exitY=0.5;exitPerimeter=0;endArrow=none;endFill=0;jettySize=auto;orthogonalLoop=1;strokeWidth=4;fontSize=15;entryX=0;entryY=0.5;entryDx=0;entryDy=0;entryPerimeter=0;" parent="1" target="PTX6QpeWHrQT1PxCH0X8-66" edge="1">
          <mxGeometry relative="1" as="geometry">
            <mxPoint x="292.21000000000004" y="210" as="sourcePoint" />
            <mxPoint x="1480" y="211" as="targetPoint" />
            <Array as="points" />
          </mxGeometry>
        </mxCell>
        <mxCell id="PTX6QpeWHrQT1PxCH0X8-66" value="" style="verticalLabelPosition=bottom;verticalAlign=top;html=1;strokeWidth=4;shape=mxgraph.flowchart.on-page_reference;strokeColor=#000000;fillColor=#B5E3FE;" parent="1" vertex="1">
          <mxGeometry x="940" y="196" width="30" height="30" as="geometry" />
        </mxCell>
        <mxCell id="PTX6QpeWHrQT1PxCH0X8-52" value="" style="verticalLabelPosition=bottom;verticalAlign=top;html=1;strokeWidth=4;shape=mxgraph.flowchart.on-page_reference;strokeColor=#000000;fillColor=#B5E3FE;" parent="1" vertex="1">
          <mxGeometry x="680" y="196" width="30" height="30" as="geometry" />
        </mxCell>
        <mxCell id="PTX6QpeWHrQT1PxCH0X8-68" value="Tag: 0.3.0&lt;br&gt;Central PC + Microcontrollers Test" style="text;html=1;strokeColor=none;fillColor=none;align=center;verticalAlign=middle;whiteSpace=wrap;overflow=hidden;fontSize=14;" parent="1" vertex="1">
          <mxGeometry x="812.25" y="126.5" width="280" height="77" as="geometry" />
        </mxCell>
        <mxCell id="PTX6QpeWHrQT1PxCH0X8-69" style="edgeStyle=orthogonalEdgeStyle;curved=1;rounded=0;html=1;endArrow=none;endFill=0;jettySize=auto;orthogonalLoop=1;strokeWidth=4;fontSize=15;entryX=0;entryY=0.5;entryDx=0;entryDy=0;entryPerimeter=0;startArrow=none;exitX=1;exitY=0.5;exitDx=0;exitDy=0;exitPerimeter=0;" parent="1" source="uWUnNED6HEl2aK5fdaIb-106" target="PTX6QpeWHrQT1PxCH0X8-70" edge="1">
          <mxGeometry relative="1" as="geometry">
            <mxPoint x="1070" y="296" as="sourcePoint" />
            <mxPoint x="1120" y="295.7" as="targetPoint" />
            <Array as="points" />
          </mxGeometry>
        </mxCell>
        <mxCell id="PTX6QpeWHrQT1PxCH0X8-70" value="" style="verticalLabelPosition=bottom;verticalAlign=top;html=1;strokeWidth=4;shape=mxgraph.flowchart.on-page_reference;strokeColor=#36393d;fillColor=#ffff88;" parent="1" vertex="1">
          <mxGeometry x="1290" y="281" width="30" height="30" as="geometry" />
        </mxCell>
        <mxCell id="PTX6QpeWHrQT1PxCH0X8-76" style="edgeStyle=orthogonalEdgeStyle;curved=1;rounded=0;orthogonalLoop=1;jettySize=auto;html=1;endArrow=none;endFill=0;strokeWidth=4;fontFamily=Courier New;fontColor=#009900;entryX=0.5;entryY=1;entryDx=0;entryDy=0;entryPerimeter=0;startArrow=none;exitX=1;exitY=0.5;exitDx=0;exitDy=0;exitPerimeter=0;" parent="1" source="PTX6QpeWHrQT1PxCH0X8-75" target="PTX6QpeWHrQT1PxCH0X8-70" edge="1">
          <mxGeometry relative="1" as="geometry">
            <mxPoint x="1110" y="381" as="sourcePoint" />
            <mxPoint x="1140" y="310" as="targetPoint" />
            <Array as="points">
              <mxPoint x="1305" y="380" />
            </Array>
          </mxGeometry>
        </mxCell>
        <mxCell id="PTX6QpeWHrQT1PxCH0X8-77" value="&lt;span style=&quot;&quot;&gt;Testbed Arduino&lt;br&gt;Running Protocol Development&lt;br&gt;&lt;/span&gt;" style="text;html=1;strokeColor=none;fillColor=none;align=center;verticalAlign=middle;whiteSpace=wrap;overflow=hidden;fontSize=12;fontStyle=0;fontColor=#000000;" parent="1" vertex="1">
          <mxGeometry x="1170" y="311" width="94.63" height="46" as="geometry" />
        </mxCell>
        <mxCell id="PTX6QpeWHrQT1PxCH0X8-75" value="" style="verticalLabelPosition=bottom;verticalAlign=top;html=1;strokeWidth=4;shape=mxgraph.flowchart.on-page_reference;plain-purple;gradientColor=none;strokeColor=#000000;fillColor=#D5E8D4;" parent="1" vertex="1">
          <mxGeometry x="1210" y="365" width="30" height="30" as="geometry" />
        </mxCell>
        <mxCell id="PTX6QpeWHrQT1PxCH0X8-80" value="" style="edgeStyle=orthogonalEdgeStyle;curved=1;rounded=0;orthogonalLoop=1;jettySize=auto;html=1;endArrow=none;endFill=0;strokeWidth=4;fontFamily=Courier New;fontColor=#009900;entryX=0.5;entryY=1;entryDx=0;entryDy=0;entryPerimeter=0;exitX=0.5;exitY=0;exitDx=0;exitDy=0;exitPerimeter=0;" parent="1" source="PTX6QpeWHrQT1PxCH0X8-70" target="uWUnNED6HEl2aK5fdaIb-109" edge="1">
          <mxGeometry relative="1" as="geometry">
            <mxPoint x="1210.0600000000002" y="280" as="sourcePoint" />
            <mxPoint x="1250.0600000000002" y="226" as="targetPoint" />
            <Array as="points">
              <mxPoint x="1320" y="281" />
              <mxPoint x="1320" y="226" />
            </Array>
          </mxGeometry>
        </mxCell>
        <mxCell id="PTX6QpeWHrQT1PxCH0X8-81" value="Tag: 1.0.0&lt;br&gt;Beta Version Test" style="text;html=1;strokeColor=none;fillColor=none;align=center;verticalAlign=middle;whiteSpace=wrap;overflow=hidden;fontSize=14;" parent="1" vertex="1">
          <mxGeometry x="1240" y="126.5" width="280" height="77" as="geometry" />
        </mxCell>
        <mxCell id="PTX6QpeWHrQT1PxCH0X8-82" value="" style="edgeStyle=orthogonalEdgeStyle;curved=1;rounded=0;html=1;exitX=1;exitY=0.5;exitPerimeter=0;endArrow=none;endFill=0;jettySize=auto;orthogonalLoop=1;strokeWidth=4;fontSize=15;startArrow=none;" parent="1" source="PTX6QpeWHrQT1PxCH0X8-99" edge="1">
          <mxGeometry relative="1" as="geometry">
            <mxPoint x="179.25000000000003" y="609.37" as="sourcePoint" />
            <mxPoint x="1400" y="610" as="targetPoint" />
            <Array as="points">
              <mxPoint x="704.25" y="609.42" />
              <mxPoint x="704.25" y="610.42" />
            </Array>
          </mxGeometry>
        </mxCell>
        <mxCell id="PTX6QpeWHrQT1PxCH0X8-83" value="Hardware" style="text;html=1;strokeColor=none;fillColor=none;align=left;verticalAlign=middle;whiteSpace=wrap;overflow=hidden;fontSize=14;fontStyle=1;fontFamily=Courier New;" parent="1" vertex="1">
          <mxGeometry x="82.25" y="600" width="91" height="20" as="geometry" />
        </mxCell>
        <mxCell id="PTX6QpeWHrQT1PxCH0X8-84" value="Hardware Milestones" style="text;html=1;strokeColor=none;fillColor=none;align=center;verticalAlign=middle;whiteSpace=wrap;rounded=0;fontSize=33;fontColor=#000000;" parent="1" vertex="1">
          <mxGeometry x="478.56" y="635" width="541.44" height="45" as="geometry" />
        </mxCell>
        <mxCell id="PTX6QpeWHrQT1PxCH0X8-85" style="edgeStyle=orthogonalEdgeStyle;rounded=0;orthogonalLoop=1;jettySize=auto;html=1;endArrow=none;endFill=0;strokeWidth=4;curved=1;exitX=0.5;exitY=1;exitDx=0;exitDy=0;exitPerimeter=0;entryX=0;entryY=0.5;entryDx=0;entryDy=0;entryPerimeter=0;" parent="1" target="PTX6QpeWHrQT1PxCH0X8-86" edge="1">
          <mxGeometry relative="1" as="geometry">
            <mxPoint x="917.69" y="310" as="sourcePoint" />
            <mxPoint x="952.69" y="519" as="targetPoint" />
            <Array as="points">
              <mxPoint x="918" y="520" />
            </Array>
          </mxGeometry>
        </mxCell>
        <mxCell id="PTX6QpeWHrQT1PxCH0X8-86" value="" style="verticalLabelPosition=bottom;verticalAlign=top;html=1;strokeWidth=4;shape=mxgraph.flowchart.on-page_reference;plain-purple;gradientColor=none;strokeColor=#000000;fillColor=#D5E8D4;" parent="1" vertex="1">
          <mxGeometry x="1000" y="505" width="30" height="30" as="geometry" />
        </mxCell>
        <mxCell id="PTX6QpeWHrQT1PxCH0X8-90" value="&lt;span style=&quot;&quot;&gt;Testbed Arduino Closed Loop Control System&lt;br&gt;&lt;/span&gt;" style="text;html=1;strokeColor=none;fillColor=none;align=center;verticalAlign=middle;whiteSpace=wrap;overflow=hidden;fontSize=12;fontStyle=0;fontColor=#000000;" parent="1" vertex="1">
          <mxGeometry x="952.25" y="450" width="117.75" height="46" as="geometry" />
        </mxCell>
        <mxCell id="PTX6QpeWHrQT1PxCH0X8-92" style="edgeStyle=orthogonalEdgeStyle;rounded=0;orthogonalLoop=1;jettySize=auto;html=1;entryX=1;entryY=0.5;entryDx=0;entryDy=0;entryPerimeter=0;endArrow=none;endFill=0;strokeWidth=4;curved=1;exitX=0.5;exitY=1;exitDx=0;exitDy=0;exitPerimeter=0;" parent="1" source="uWUnNED6HEl2aK5fdaIb-106" edge="1">
          <mxGeometry relative="1" as="geometry">
            <mxPoint x="1180" y="311" as="sourcePoint" />
            <mxPoint x="1030" y="520" as="targetPoint" />
            <Array as="points">
              <mxPoint x="1140" y="520" />
            </Array>
          </mxGeometry>
        </mxCell>
        <mxCell id="PTX6QpeWHrQT1PxCH0X8-94" value="" style="edgeStyle=orthogonalEdgeStyle;curved=1;rounded=0;orthogonalLoop=1;jettySize=auto;html=1;endArrow=none;endFill=0;strokeWidth=4;fontFamily=Courier New;fontColor=#009900;entryX=0.5;entryY=1;entryDx=0;entryDy=0;entryPerimeter=0;exitX=0;exitY=0.5;exitDx=0;exitDy=0;exitPerimeter=0;" parent="1" source="PTX6QpeWHrQT1PxCH0X8-75" target="uWUnNED6HEl2aK5fdaIb-106" edge="1">
          <mxGeometry relative="1" as="geometry">
            <mxPoint x="1110.0300000000002" y="364" as="sourcePoint" />
            <mxPoint x="1150.0300000000002" y="310" as="targetPoint" />
            <Array as="points">
              <mxPoint x="1150" y="380" />
              <mxPoint x="1150" y="311" />
            </Array>
          </mxGeometry>
        </mxCell>
        <mxCell id="PTX6QpeWHrQT1PxCH0X8-95" value="" style="edgeStyle=orthogonalEdgeStyle;curved=1;rounded=0;orthogonalLoop=1;jettySize=auto;html=1;endArrow=none;endFill=0;strokeWidth=4;fontFamily=Courier New;fontColor=#009900;exitX=0.5;exitY=0;exitDx=0;exitDy=0;exitPerimeter=0;" parent="1" edge="1">
          <mxGeometry relative="1" as="geometry">
            <mxPoint x="995.0100000000001" y="377" as="sourcePoint" />
            <mxPoint x="1035" y="310" as="targetPoint" />
            <Array as="points">
              <mxPoint x="1040" y="377" />
              <mxPoint x="1040" y="310" />
            </Array>
          </mxGeometry>
        </mxCell>
        <mxCell id="PTX6QpeWHrQT1PxCH0X8-96" value="" style="verticalLabelPosition=bottom;verticalAlign=top;html=1;strokeWidth=4;shape=mxgraph.flowchart.on-page_reference;strokeColor=#36393d;fillColor=#ffff88;" parent="1" vertex="1">
          <mxGeometry x="1024.6299999999999" y="281" width="30" height="30" as="geometry" />
        </mxCell>
        <mxCell id="PTX6QpeWHrQT1PxCH0X8-97" value="STM32 Microcontrollers" style="text;html=1;strokeColor=none;fillColor=none;align=left;verticalAlign=middle;whiteSpace=wrap;overflow=hidden;fontSize=14;fontStyle=0;fontColor=#009900;" parent="1" vertex="1">
          <mxGeometry x="82.25" y="535" width="240" height="20" as="geometry" />
        </mxCell>
        <mxCell id="PTX6QpeWHrQT1PxCH0X8-100" value="" style="edgeStyle=orthogonalEdgeStyle;curved=1;rounded=0;html=1;exitX=1;exitY=0.5;exitPerimeter=0;endArrow=none;endFill=0;jettySize=auto;orthogonalLoop=1;strokeWidth=4;fontSize=15;" parent="1" target="PTX6QpeWHrQT1PxCH0X8-99" edge="1">
          <mxGeometry relative="1" as="geometry">
            <mxPoint x="179.25" y="609.3699999999999" as="sourcePoint" />
            <mxPoint x="1400" y="610" as="targetPoint" />
            <Array as="points" />
          </mxGeometry>
        </mxCell>
        <mxCell id="PTX6QpeWHrQT1PxCH0X8-99" value="" style="verticalLabelPosition=bottom;verticalAlign=top;html=1;strokeWidth=4;shape=mxgraph.flowchart.on-page_reference;strokeColor=#36393d;fillColor=#ffcccc;" parent="1" vertex="1">
          <mxGeometry x="817.56" y="595" width="30" height="30" as="geometry" />
        </mxCell>
        <mxCell id="PTX6QpeWHrQT1PxCH0X8-101" value="Jimmy" style="text;html=1;strokeColor=none;fillColor=none;align=left;verticalAlign=middle;whiteSpace=wrap;overflow=hidden;fontSize=14;fontStyle=0;fontColor=#009900;" parent="1" vertex="1">
          <mxGeometry x="82.25" y="625" width="240" height="20" as="geometry" />
        </mxCell>
        <mxCell id="PTX6QpeWHrQT1PxCH0X8-102" value="&lt;span style=&quot;&quot;&gt;Electronic Valves + Pumps&lt;br&gt;&lt;/span&gt;" style="text;html=1;strokeColor=none;fillColor=none;align=center;verticalAlign=middle;whiteSpace=wrap;overflow=hidden;fontSize=12;fontStyle=0;fontColor=#000000;" parent="1" vertex="1">
          <mxGeometry x="762.56" y="549" width="140" height="46" as="geometry" />
        </mxCell>
        <mxCell id="PTX6QpeWHrQT1PxCH0X8-105" value="" style="verticalLabelPosition=bottom;verticalAlign=top;html=1;strokeWidth=4;shape=mxgraph.flowchart.on-page_reference;strokeColor=#36393d;fillColor=#ffcccc;" parent="1" vertex="1">
          <mxGeometry x="1000" y="595" width="30" height="30" as="geometry" />
        </mxCell>
        <mxCell id="PTX6QpeWHrQT1PxCH0X8-106" value="&lt;span style=&quot;&quot;&gt;Wiring and PAT testing&lt;br&gt;&lt;/span&gt;" style="text;html=1;strokeColor=none;fillColor=none;align=center;verticalAlign=middle;whiteSpace=wrap;overflow=hidden;fontSize=12;fontStyle=0;fontColor=#000000;" parent="1" vertex="1">
          <mxGeometry x="941.1299999999999" y="549" width="140" height="46" as="geometry" />
        </mxCell>
        <mxCell id="pR6w6rgXj4pNiSQ1BVCC-1" value="Tag: 0.1.1&lt;br&gt;Thermocouple/Pico Logger Test" style="text;html=1;strokeColor=none;fillColor=none;align=center;verticalAlign=middle;whiteSpace=wrap;overflow=hidden;fontSize=14;" vertex="1" parent="1">
          <mxGeometry x="380" y="220" width="250" height="70" as="geometry" />
        </mxCell>
        <mxCell id="pR6w6rgXj4pNiSQ1BVCC-2" value="Tag: 0.2.1&lt;br&gt;GP/IO Interrupts Test&amp;nbsp;" style="text;html=1;strokeColor=none;fillColor=none;align=center;verticalAlign=middle;whiteSpace=wrap;overflow=hidden;fontSize=14;" vertex="1" parent="1">
          <mxGeometry x="700" y="220" width="250" height="70" as="geometry" />
        </mxCell>
      </root>
    </mxGraphModel>
  </diagram>
</mxfile>
